<svg width="36" height="39" viewBox="0 0 36 39" fill="none" xmlns="http://www.w3.org/2000/svg">
<circle cx="18" cy="19" r="18" fill="#F35A05"/>
<path d="M13.6758 25.3867C14.1602 25.3555 14.5312 25.3398 14.7891 25.3398C15.4453 25.3398 16.5391 25.4102 18.0703 25.5508C19.6094 25.6836 20.7812 25.8164 21.5859 25.9492C22.3906 26.0742 22.8906 26.1992 23.0859 26.3242C23.2812 26.4414 23.4375 26.6055 23.5547 26.8164C23.6719 27.0195 23.7305 27.2383 23.7305 27.4727C23.7305 27.668 23.582 27.8672 23.2852 28.0703C22.9961 28.2812 22.7227 28.3867 22.4648 28.3867C22.1602 28.3867 21.6953 28.3125 21.0703 28.1641C20.0156 27.9062 18.75 27.7109 17.2734 27.5781C15.8047 27.4453 14.4375 27.3789 13.1719 27.3789C12.6094 27.3789 12.0273 27.4648 11.4258 27.6367C11.0898 27.7539 10.7617 27.8125 10.4414 27.8125C10.2461 27.8125 10.0742 27.7539 9.92578 27.6367C9.78516 27.5195 9.71484 27.3594 9.71484 27.1562C9.71484 26.4375 10.2695 25.5664 11.3789 24.543C12.4961 23.5117 14.0664 22.4766 16.0898 21.4375C18.5664 20.1641 20.2031 19.0977 21 18.2383C21.7969 17.3789 22.1953 16.5352 22.1953 15.707C22.1953 14.9492 21.8984 14.293 21.3047 13.7383C20.7188 13.1836 19.9844 12.9062 19.1016 12.9062C18.2891 12.9062 17.5391 13.043 16.8516 13.3164C16.1641 13.5898 15.4961 14.0898 14.8477 14.8164C14.582 15.1133 14.3359 15.2617 14.1094 15.2617C13.8281 15.2617 13.5742 15.1641 13.3477 14.9688C13.1211 14.7656 13.0078 14.5352 13.0078 14.2773C13.0078 13.4805 13.6367 12.7188 14.8945 11.9922C16.1602 11.2578 17.6445 10.8906 19.3477 10.8906C20.8086 10.8906 22.0273 11.332 23.0039 12.2148C23.9883 13.0977 24.4805 14.2383 24.4805 15.6367C24.4805 17.0273 23.9453 18.3086 22.875 19.4805C21.8125 20.6445 19.8203 21.9258 16.8984 23.3242C15.6484 23.9258 14.5742 24.6133 13.6758 25.3867Z" fill="white"/>
</svg>
