<svg width="21" height="25" viewBox="0 0 21 25" fill="none" xmlns="http://www.w3.org/2000/svg">
<path d="M0 24.5H21V7.04545L13.8158 0.5H0V24.5Z" fill="#F35A05"/>
<path d="M15.2929 19.2071C15.6834 19.5976 16.3166 19.5976 16.7071 19.2071C17.0976 18.8166 17.0976 18.1834 16.7071 17.7929L15.2929 19.2071ZM13.7059 12.3529C13.7059 14.4809 11.9809 16.2059 9.85294 16.2059V18.2059C13.0854 18.2059 15.7059 15.5854 15.7059 12.3529H13.7059ZM9.85294 16.2059C7.72502 16.2059 6 14.4809 6 12.3529H4C4 15.5854 6.62045 18.2059 9.85294 18.2059V16.2059ZM6 12.3529C6 10.225 7.72502 8.5 9.85294 8.5V6.5C6.62045 6.5 4 9.12045 4 12.3529H6ZM9.85294 8.5C11.9809 8.5 13.7059 10.225 13.7059 12.3529H15.7059C15.7059 9.12045 13.0854 6.5 9.85294 6.5V8.5ZM16.7071 17.7929L13.9975 15.0833L12.5833 16.4975L15.2929 19.2071L16.7071 17.7929Z" fill="white"/>
</svg>
