<svg width="36" height="39" viewBox="0 0 36 39" fill="none" xmlns="http://www.w3.org/2000/svg">
<circle cx="18" cy="19" r="18" fill="#F35A05"/>
<path d="M21.0938 19.3398C21.75 19.6133 22.2812 20.0625 22.6875 20.6875C23.1016 21.3125 23.3086 21.9336 23.3086 22.5508C23.3086 24.1914 22.6719 25.5273 21.3984 26.5586C20.1328 27.582 18.4883 28.0938 16.4648 28.0938C14.8867 28.0938 13.4297 27.6992 12.0938 26.9102C10.7656 26.1211 10.1016 25.293 10.1016 24.4258C10.1016 24.1211 10.207 23.8477 10.418 23.6055C10.6289 23.3633 10.875 23.2422 11.1562 23.2422C11.6797 23.2422 12.0234 23.4023 12.1875 23.7227C13.0703 25.293 14.5273 26.0781 16.5586 26.0781C17.9805 26.0781 19.0781 25.7617 19.8516 25.1289C20.6328 24.4883 21.0234 23.6836 21.0234 22.7148C21.0234 22.2148 20.8672 21.7852 20.5547 21.4258C20.25 21.0664 19.8828 20.8203 19.4531 20.6875C19.0234 20.5547 18.2344 20.4883 17.0859 20.4883C16.7812 20.4883 16.5352 20.3867 16.3477 20.1836C16.168 19.9727 16.0781 19.7305 16.0781 19.457C16.0781 19.207 16.1914 18.9805 16.418 18.7773C16.6523 18.5742 16.9727 18.4727 17.3789 18.4727C17.6914 18.4727 17.9883 18.4805 18.2695 18.4961L19.1016 18.5664C19.2266 18.5664 19.6328 18.4258 20.3203 18.1445C21.0156 17.8555 21.5586 17.4805 21.9492 17.0195C22.3398 16.5508 22.5352 16.0117 22.5352 15.4023C22.5352 14.6992 22.2305 14.1133 21.6211 13.6445C21.0195 13.168 20.2188 12.9297 19.2188 12.9297C17.5 12.9297 16.1914 13.5273 15.293 14.7227C15.0508 15.0586 14.7383 15.2266 14.3555 15.2266C14.0586 15.2266 13.8125 15.1367 13.6172 14.957C13.4219 14.7773 13.3242 14.5391 13.3242 14.2422C13.3242 13.5469 13.9531 12.8203 15.2109 12.0625C16.4688 11.2969 17.8945 10.9141 19.4883 10.9141C21.0039 10.9141 22.2695 11.3242 23.2852 12.1445C24.3086 12.9648 24.8203 13.9844 24.8203 15.2031C24.8203 16.1328 24.4961 16.9648 23.8477 17.6992C23.1992 18.4258 22.2812 18.9727 21.0938 19.3398Z" fill="white"/>
</svg>
