<svg width="21" height="25" viewBox="0 0 21 25" fill="none" xmlns="http://www.w3.org/2000/svg">
<path d="M0 24.5H21V7.04545L13.8158 0.5H0V24.5Z" fill="#F35A05"/>
<path d="M9.84744 7.5C9.48704 7.5 9.19488 7.79848 9.19488 8.16667V9.25616C9.19488 9.5387 9.01794 9.78568 8.76992 9.91069C8.61493 9.98881 8.46574 10.0771 8.32317 10.1747C8.09335 10.332 7.79541 10.3651 7.55582 10.2238L6.6315 9.67863C6.31939 9.49453 5.92029 9.60378 5.74009 9.92265L5.08754 11.0773C4.90734 11.3962 5.01427 11.8039 5.32639 11.988L6.25078 12.5333C6.49005 12.6744 6.61105 12.954 6.59306 13.2357C6.58749 13.3231 6.58465 13.4112 6.58465 13.5C6.58465 13.5888 6.58749 13.6769 6.59306 13.7643C6.61105 14.046 6.49005 14.3256 6.25078 14.4667L5.32639 15.012C5.01427 15.1961 4.90734 15.6038 5.08754 15.9226L5.74009 17.0773C5.92029 17.3962 6.31939 17.5055 6.6315 17.3214L7.55581 16.7762C7.7954 16.6349 8.09334 16.668 8.32317 16.8253C8.46574 16.9229 8.61493 17.0112 8.76992 17.0893C9.01794 17.2143 9.19488 17.4613 9.19488 17.7438V18.8333C9.19488 19.2015 9.48704 19.5 9.84744 19.5H11.1526C11.513 19.5 11.8051 19.2015 11.8051 18.8333V17.7438C11.8051 17.4613 11.9821 17.2143 12.2301 17.0893C12.3851 17.0112 12.5343 16.9229 12.6768 16.8253C12.9067 16.668 13.2046 16.6349 13.4442 16.7762L14.3685 17.3214C14.6806 17.5055 15.0797 17.3962 15.2599 17.0773L15.9125 15.9226C16.0927 15.6038 15.9857 15.1961 15.6736 15.012L14.7492 14.4667C14.5099 14.3256 14.389 14.046 14.4069 13.7643C14.4125 13.6769 14.4153 13.5888 14.4153 13.5C14.4153 13.4112 14.4125 13.3231 14.4069 13.2357C14.389 12.954 14.5099 12.6744 14.7492 12.5333L15.6736 11.988C15.9857 11.8039 16.0927 11.3962 15.9125 11.0773L15.2599 9.92265C15.0797 9.60378 14.6806 9.49453 14.3685 9.67863L13.4442 10.2238C13.2046 10.3651 12.9067 10.332 12.6768 10.1747C12.5343 10.0771 12.3851 9.98881 12.2301 9.91069C11.9821 9.78568 11.8051 9.5387 11.8051 9.25616V8.16667C11.8051 7.79848 11.513 7.5 11.1526 7.5H9.84744Z" stroke="white" stroke-width="2" stroke-linecap="round" stroke-linejoin="round"/>
</svg>
